# xmcd CD database file
#
# Track frame offsets:
#	150
#	14564
#	26171
#	36415
#	46670
#	55808
#	71869
#	85223
#	96675
#	123896
#	142158
#	155198
#
# Disc length: 2267 seconds
#
# Revision: 0
# Processed by: cddbd v1.5.2PL0 Copyright (c) Steve Scherf et al.
# Submitted via: CDex 1.70beta2
#
DISCID=b308d90c
DTITLE=CM HFt80's - Country Music Hits From the 80's - D2
DYEAR=1900
DGENRE=Country
TTITLE0=Jeannie C.Riley - Here's To The Cowboys
TTITLE1=Cleve Francis - Cry Baby
TTITLE2=Mel McDaniel - Louisana Saturday Night
TTITLE3=Bobby Helms - Troubles Wall To Wall
TTITLE4=Roni Stoneman - Pins And Needles
TTITLE5=Ronnie Dove - I'll Never Fall In Love Again
TTITLE6=Deborah Allen - I've Been Wrong Before
TTITLE7=Eddy Raven - I'm Gonna Get You
TTITLE8=Jimmy Dean - I.O.U.
TTITLE9=Jo-El Sonnier - Tear Stained Letter
TTITLE10=Lacy J.Dalton - Dream Baby (How Long Must I Dream)
TTITLE11=Frankie laine - Over
EXTD=
EXTT0=
EXTT1=
EXTT2=
EXTT3=
EXTT4=
EXTT5=
EXTT6=
EXTT7=
EXTT8=
EXTT9=
EXTT10=
EXTT11=
PLAYORDER=
